#!OML:ASF I:\golf\golf\golf 2\Subject 1\2002-09-07\Subject1.ASF
:FULLY-SPECIFIED
:DEGREES
298
root -5.82888 18.0668 -3.1508 -168.229 6.66457 -176.048
lowerback -8.0777 11.3094 17.8748
upperback -14.0853 20.1224 4.56547
thorax -8.12059 10.4575 -3.8646
lowerneck -6.5514 -19.7022 -2.85306
upperneck 13.7161 -27.5888 0.547358
head 5.6778 -13.8672 -1.4008
rclavicle 1.19271e-014 1.43125e-013
rhumerus 97.9724 34.4268 -55.1508
rradius 49.807
rwrist 3.83459
rhand -16.8803 16.6385
rfingers 7.12502
rthumb 9.3508 -13.1341
lclavicle 1.19271e-014 1.43125e-013
lhumerus 54.4016 7.31562 76.4816
lradius 67.7129
lwrist 36.1678
lhand -22.8345 19.6397
lfingers 7.12502
lthumb -176.397 -130.411
rfemur 15.1127 -4.89569 18.3342
rtibia 15.526
rfoot 13.3125 -41.0671
rtoes 31.2387
lfemur -24.4452 -14.3729 -15.7135
ltibia 24.1784
lfoot 26.0254 -45.1132
ltoes 44.594
299
root -5.81949 18.0628 -3.21253 -167.926 5.68444 -175.93
lowerback -8.09317 11.4227 17.8438
upperback -14.4331 20.3926 4.1067
thorax -8.32564 10.5714 -4.32923
lowerneck -6.77557 -19.7845 -3.05822
upperneck 13.2271 -27.61 0.941614
head 5.64085 -13.8365 -1.27661
rclavicle 5.00937e-014 1.1291e-013
rhumerus 99.3944 33.3879 -54.5591
rradius 51.2518
rwrist 4.62749
rhand -18.1002 16.3091
rfingers 7.12502
rthumb 8.17363 -13.5128
lclavicle 5.00937e-014 1.1291e-013
lhumerus 56.5052 7.98695 75.9742
lradius 68.3112
lwrist 36.0051
lhand -23.0509 18.2284
lfingers 7.12502
lthumb -176.606 -131.819
rfemur 15.5755 -5.08997 18.772
rtibia 14.565
rfoot 15.541 -40.6925
rtoes 30.8768
lfemur -24.8532 -14.7484 -15.4482
ltibia 24.4391
lfoot 26.8058 -45.3729
ltoes 44.9427
300
root -5.81314 18.0563 -3.2724 -167.709 4.79857 -175.96
lowerback -8.30116 11.4855 17.6153
upperback -14.584 20.477 3.7988
thorax -8.31222 10.6334 -4.49144
lowerneck -7.13377 -19.8142 -3.24299
upperneck 12.9124 -27.5241 1.08042
head 5.63854 -13.7646 -1.23552
rclavicle -4.29375e-014 -8.90555e-014
rhumerus 101.025 32.6509 -53.942
rradius 52.5888
rwrist 5.47725
rhand -19.3077 16.2788
rfingers 7.12502
rthumb 7.00813 -13.5852
lclavicle -4.29375e-014 -8.90555e-014
lhumerus 58.4334 8.96377 75.3027
lradius 69.1468
lwrist 36.071
lhand -23.2536 17.6697
lfingers 7.12502
lthumb -176.802 -132.375
rfemur 16.1311 -5.34887 18.9572
rtibia 13.5438
rfoot 18.0184 -39.9819
rtoes 29.4728
lfemur -25.1895 -15.0728 -15.3933
ltibia 24.7307
lfoot 28.0237 -45.321
ltoes 45.765
301
root -5.80801 18.0513 -3.33018 -167.521 3.91725 -175.947
lowerback -8.27637 11.5542 17.5718
upperback -14.9138 20.6861 3.35854
thorax -8.53273 10.7134 -4.94923
lowerneck -7.23241 -19.8857 -3.38234
upperneck 12.7494 -27.5488 1.15022
head 5.63045 -13.7652 -1.2074
rclavicle 6.99722e-014 9.85972e-014
rhumerus 102.054 32.1186 -54.1433
rradius 53.6743
rwrist 6.70767
rhand -20.2131 17.1226
rfingers 7.12502
rthumb 6.13405 -12.7686
lclavicle 6.99722e-014 9.85972e-014
lhumerus 60.1198 9.81992 74.6082
lradius 70.0443
lwrist 36.6557
lhand -22.7854 17.0621
lfingers 7.12502
lthumb -176.35 -132.989
rfemur 16.7467 -5.5126 19.228
rtibia 12.4333
rfoot 19.5771 -39.6792
rtoes 28.4855
lfemur -25.5102 -15.3074 -15.3155
ltibia 25.0658
lfoot 29.2298 -45.3838
ltoes 46.5443
302
root -5.80284 18.0498 -3.38525 -167.267 2.97399 -175.628
lowerback -8.77421 11.4809 17.5593
upperback -14.8862 20.5392 3.39125
thorax -8.28181 10.7072 -4.79389
lowerneck -7.54425 -19.8123 -3.51847
upperneck 12.3471 -27.3007 1.17461
head 5.56639 -13.623 -1.17204
rclavicle 0 -6.36111e-015
rhumerus 103.773 31.7496 -53.6448
rradius 54.9286
rwrist 7.68171
rhand -21.1354 17.5758
rfingers 7.12502
rthumb 5.24357 -12.3393
lclavicle 0 -6.36111e-015
lhumerus 61.857 11.3805 74.2502
lradius 70.9248
lwrist 37.3924
lhand -22.3035 16.3435
lfingers 7.12502
lthumb -175.884 -133.717
rfemur 17.2724 -5.67255 19.8703
rtibia 11.3132
rfoot 21.1533 -39.4102
rtoes 27.4669
lfemur -25.9031 -15.5106 -14.8588
ltibia 25.397
lfoot 29.9272 -45.8419
ltoes 46.8301
303
root -5.79946 18.0472 -3.43626 -166.993 2.02156 -175.116
lowerback -8.80446 11.4545 17.9151
upperback -15.1724 20.6632 3.17243
thorax -8.44708 10.7498 -5.20356
lowerneck -7.62241 -19.8167 -3.62187
upperneck 12.083 -27.2627 1.37743
head 5.53601 -13.5867 -1.09913
rclavicle -1.08934e-013 -3.49861e-014
rhumerus 105.043 30.7427 -52.9857
rradius 56.3017
rwrist 8.11813
rhand -22.5413 17.5752
rfingers 7.12502
rthumb 3.88606 -12.3691
lclavicle -1.08934e-013 -3.49861e-014
lhumerus 63.4254 12.3564 73.6307
lradius 71.6953
lwrist 37.955
lhand -22.136 15.7579
lfingers 7.12502
lthumb -175.723 -134.305
rfemur 17.7442 -5.91788 20.6805
rtibia 10.1706
rfoot 22.7131 -39.2264
rtoes 27.7412
lfemur -26.3349 -15.7666 -14.1439
ltibia 25.7192
lfoot 30.8723 -45.9317
ltoes 47.4336
304
root -5.79811 18.0407 -3.48547 -166.828 1.18997 -174.865
lowerback -8.89568 11.4513 17.9692
upperback -15.2554 20.6843 3.01208
thorax -8.42316 10.7664 -5.37329
lowerneck -7.9138 -19.8363 -3.6735
upperneck 11.7096 -27.2048 1.52968
head 5.48929 -13.5328 -1.05594
rclavicle 3.73715e-014 3.97569e-015
rhumerus 106.375 29.8708 -52.3631
rradius 57.5854
rwrist 8.61755
rhand -23.8643 17.7952
rfingers 7.12502
rthumb 2.60838 -12.1686
lclavicle 3.73715e-014 3.97569e-015
lhumerus 65.0461 13.4696 72.9872
lradius 72.3628
lwrist 38.0283
lhand -22.5443 15.1717
lfingers 7.12502
lthumb -176.117 -134.884
rfemur 18.3304 -6.47033 21.0295
rtibia 9.00008
rfoot 23.83 -39.1455
rtoes 29.7997
lfemur -26.6426 -16.1019 -13.7461
ltibia 26.0308
lfoot 31.7385 -45.8735
ltoes 48.0682
305
root -5.79743 18.0354 -3.53442 -166.678 0.439796 -174.813
lowerback -8.9962 11.4746 17.8419
upperback -15.3845 20.753 2.78909
thorax -8.45694 10.8134 -5.52671
lowerneck -8.08314 -19.8965 -3.77007
upperneck 11.415 -27.2056 1.59816
head 5.4437 -13.5196 -1.02738
rclavicle -7.23576e-014 5.40694e-014
rhumerus 107.308 29.5694 -52.4309
rradius 58.6063
rwrist 9.3854
rhand -24.8127 18.4769
rfingers 7.12502
rthumb 1.69243 -11.4962
lclavicle -7.23576e-014 5.40694e-014
lhumerus 66.3816 14.3543 72.2188
lradius 72.9742
lwrist 37.1862
lhand -23.4315 14.5757
lfingers 7.12502
lthumb -176.974 -135.466
rfemur 18.8973 -6.97577 21.1323
rtibia 7.86967
rfoot 25.2345 -38.8888
rtoes 30.6787
lfemur -26.9359 -16.386 -13.6079
ltibia 26.3168
lfoot 32.1466 -46.2621
ltoes 48.2453
306
root -5.79889 18.0338 -3.58203 -166.449 -0.250104 -174.744
lowerback -9.10494 11.4735 17.7678
upperback -15.6372 20.8586 2.52585
thorax -8.61215 10.873 -5.76744
lowerneck -8.00112 -19.9147 -4.10108
upperneck 11.3049 -27.2165 1.87963
head 5.4791 -13.5157 -0.915081
rclavicle -1.59028e-013 -1.17681e-013
rhumerus 107.971 29.5258 -52.7827
rradius 59.5783
rwrist 10.0486
rhand -25.7696 19.3971
rfingers 7.12502
rthumb 0.768298 -10.5813
lclavicle -1.59028e-013 -1.17681e-013
lhumerus 67.2576 15.028 71.0651
lradius 73.6063
lwrist 35.1359
lhand -24.8977 14.1902
lfingers 7.12502
lthumb -178.39 -135.836
rfemur 19.3578 -7.40047 21.2348
rtibia 6.75624
rfoot 26.4785 -38.7186
rtoes 30.826
lfemur -27.309 -16.6083 -13.4525
ltibia 26.582
lfoot 32.6254 -46.501
ltoes 48.6116
307
root -5.80286 18.0303 -3.62623 -166.265 -0.879002 -174.657
lowerback -9.53617 17.374 16.6634
upperback -16.4299 19.1876 1.01538
thorax -8.21764 6.40172 -5.75485
lowerneck -7.84983 -19.8568 -4.69107
upperneck 11.1933 -27.1434 2.39871
head 5.56836 -13.4649 -0.707337
rclavicle 1.98785e-014 8.98507e-014
rhumerus 108.799 29.361 -52.7264
rradius 60.6377
rwrist 10.6488
rhand -26.8207 20.212
rfingers 7.12502
rthumb -0.246933 -9.76756
lclavicle 1.98785e-014 8.98507e-014
lhumerus 68.1331 16.0748 70.4296
lradius 74.4829
lwrist 34.5396
lhand -25.4299 14.0563
lfingers 7.12502
lthumb -178.904 -135.967
rfemur 19.8864 -7.76256 21.3331
rtibia 5.58458
rfoot 27.997 -38.3983
rtoes 30.244
lfemur -27.6125 -16.9244 -13.2653
ltibia 26.8427
lfoot 33.311 -46.2236
ltoes 49.3909
